<svg viewBox="0 0 400 400" xmlns="http://www.w3.org/2000/svg">
  <!-- Background Circle -->
  <circle cx="200" cy="200" r="180" fill="#0f172a" opacity="0.05"/>
  
  <!-- Shield Base -->
  <path d="M200 80 L280 110 L280 180 Q280 240 200 300 Q120 240 120 180 L120 110 Z" 
        fill="url(#shieldGradient)" 
        stroke="#1e40af" 
        stroke-width="3"/>
  
  <!-- Gradient Definition -->
  <defs>
    <linearGradient id="shieldGradient" x1="0%" y1="0%" x2="0%" y2="100%">
      <stop offset="0%" style="stop-color:#3b82f6;stop-opacity:1" />
      <stop offset="100%" style="stop-color:#1e40af;stop-opacity:1" />
    </linearGradient>
    
    <linearGradient id="checkGradient" x1="0%" y1="0%" x2="100%" y2="100%">
      <stop offset="0%" style="stop-color:#10b981;stop-opacity:1" />
      <stop offset="100%" style="stop-color:#059669;stop-opacity:1" />
    </linearGradient>
  </defs>
  
  <!-- Checkmark -->
  <path d="M165 190 L185 210 L235 150" 
        fill="none" 
        stroke="url(#checkGradient)" 
        stroke-width="12" 
        stroke-linecap="round" 
        stroke-linejoin="round"/>
  
  <!-- Digital Elements - Circuit Lines -->
  <circle cx="150" cy="140" r="4" fill="#60a5fa" opacity="0.8"/>
  <circle cx="250" cy="140" r="4" fill="#60a5fa" opacity="0.8"/>
  <circle cx="140" cy="240" r="4" fill="#60a5fa" opacity="0.8"/>
  <circle cx="260" cy="240" r="4" fill="#60a5fa" opacity="0.8"/>
  
  <line x1="150" y1="140" x2="180" y2="160" stroke="#60a5fa" stroke-width="1.5" opacity="0.6"/>
  <line x1="250" y1="140" x2="220" y2="160" stroke="#60a5fa" stroke-width="1.5" opacity="0.6"/>
  <line x1="140" y1="240" x2="170" y2="210" stroke="#60a5fa" stroke-width="1.5" opacity="0.6"/>
  <line x1="260" y1="240" x2="230" y2="210" stroke="#60a5fa" stroke-width="1.5" opacity="0.6"/>
  
  <!-- Text -->
  <text x="200" y="340" font-family="Arial, sans-serif" font-size="32" font-weight="bold" 
        fill="#0f172a" text-anchor="middle">SafeCheck</text>
  
  <text x="200" y="365" font-family="Arial, sans-serif" font-size="14" 
        fill="#64748b" text-anchor="middle" letter-spacing="2">SEGURANÇA OPERACIONAL</text>
</svg>